<svg width="40" height="40" viewBox="0 0 40 40" fill="none" xmlns="http://www.w3.org/2000/svg">
<rect width="40" height="40" rx="4" fill="black" fill-opacity="0.6"/>
<path d="M21.47 16.53C21.3963 16.4613 21.3372 16.3785 21.2962 16.2865C21.2552 16.1945 21.2332 16.0952 21.2314 15.9945C21.2296 15.8938 21.2482 15.7938 21.2859 15.7004C21.3236 15.607 21.3797 15.5222 21.451 15.451C21.5222 15.3797 21.607 15.3236 21.7004 15.2859C21.7938 15.2482 21.8938 15.2296 21.9945 15.2314C22.0952 15.2332 22.1945 15.2552 22.2865 15.2962C22.3785 15.3372 22.4613 15.3963 22.53 15.47L26.53 19.47C26.6704 19.6106 26.7493 19.8013 26.7493 20C26.7493 20.1988 26.6704 20.3894 26.53 20.53L22.53 24.53C22.4613 24.6037 22.3785 24.6628 22.2865 24.7038C22.1945 24.7448 22.0952 24.7668 21.9945 24.7686C21.8938 24.7704 21.7938 24.7518 21.7004 24.7141C21.607 24.6764 21.5222 24.6203 21.451 24.549C21.3797 24.4778 21.3236 24.393 21.2859 24.2996C21.2482 24.2062 21.2296 24.1062 21.2314 24.0055C21.2332 23.9048 21.2552 23.8055 21.2962 23.7135C21.3372 23.6215 21.3963 23.5387 21.47 23.47L24.19 20.75L14.5 20.75C14.3011 20.75 14.1103 20.671 13.9697 20.5303C13.829 20.3897 13.75 20.1989 13.75 20C13.75 19.8011 13.829 19.6103 13.9697 19.4697C14.1103 19.329 14.3011 19.25 14.5 19.25L24.19 19.25L21.47 16.53Z" fill="white"/>
</svg>
