<svg width="40" height="40" viewBox="0 0 40 40" fill="none" xmlns="http://www.w3.org/2000/svg">
<rect width="40" height="40" rx="4" transform="matrix(-1 0 0 1 40 0)" fill="black" fill-opacity="0.6"/>
<path d="M18.53 16.53C18.6037 16.4613 18.6628 16.3785 18.7038 16.2865C18.7448 16.1945 18.7668 16.0952 18.7686 15.9945C18.7704 15.8938 18.7518 15.7938 18.7141 15.7004C18.6764 15.607 18.6203 15.5222 18.549 15.451C18.4778 15.3797 18.393 15.3236 18.2996 15.2859C18.2062 15.2482 18.1062 15.2296 18.0055 15.2314C17.9048 15.2332 17.8055 15.2552 17.7135 15.2962C17.6215 15.3372 17.5387 15.3963 17.47 15.47L13.47 19.47C13.3296 19.6106 13.2507 19.8013 13.2507 20C13.2507 20.1988 13.3296 20.3894 13.47 20.53L17.47 24.53C17.5387 24.6037 17.6215 24.6628 17.7135 24.7038C17.8055 24.7448 17.9048 24.7668 18.0055 24.7686C18.1062 24.7704 18.2062 24.7518 18.2996 24.7141C18.393 24.6764 18.4778 24.6203 18.549 24.549C18.6203 24.4778 18.6764 24.393 18.7141 24.2996C18.7518 24.2062 18.7704 24.1062 18.7686 24.0055C18.7668 23.9048 18.7448 23.8055 18.7038 23.7135C18.6628 23.6215 18.6037 23.5387 18.53 23.47L15.81 20.75L25.5 20.75C25.6989 20.75 25.8897 20.671 26.0303 20.5303C26.171 20.3897 26.25 20.1989 26.25 20C26.25 19.8011 26.171 19.6103 26.0303 19.4697C25.8897 19.329 25.6989 19.25 25.5 19.25L15.81 19.25L18.53 16.53Z" fill="white"/>
</svg>
